<?xml version="1.0" encoding="us-ascii" standalone="no"?><svg xmlns="http://www.w3.org/2000/svg" xmlns:xlink="http://www.w3.org/1999/xlink" contentStyleType="text/css" height="1251px" preserveAspectRatio="none" style="width:1051px;height:1251px;background:#FFFFFF;" version="1.1" viewBox="0 0 1051 1251" width="1051px" zoomAndPan="magnify"><defs/><g><!--class users--><g id="elem_users"><rect codeLine="2" fill="#F1F1F1" height="163.418" id="users" rx="2.5" ry="2.5" style="stroke:#181818;stroke-width:0.5;" width="192" x="41.5" y="7"/><ellipse cx="114.75" cy="23" fill="#ADD1B2" rx="11" ry="11" style="stroke:#181818;stroke-width:1.0;"/><path d="M118.3643,29.5 L110.6445,29.5 L110.6445,17.1069 L118.3643,17.1069 L118.3643,19.2651 L113.0933,19.2651 L113.0933,21.938 L117.8662,21.938 L117.8662,24.0962 L113.0933,24.0962 L113.0933,27.3418 L118.3643,27.3418 Z " fill="#000000"/><text fill="#000000" font-family="sans-serif" font-size="14" lengthAdjust="spacing" textLength="37" x="135.25" y="28.291">users</text><line style="stroke:#181818;stroke-width:0.5;" x1="42.5" x2="232.5" y1="39" y2="39"/><ellipse cx="52.5" cy="52.7441" fill="#000000" rx="3" ry="3" style="stroke:#000000;stroke-width:1.0;"/><text fill="#000000" font-family="sans-serif" font-size="14" lengthAdjust="spacing" textLength="60" x="61.5" y="56.5352">id : TEXT</text><line style="stroke:#181818;stroke-width:1.0;" x1="42.5" x2="232.5" y1="63.4883" y2="63.4883"/><text fill="#000000" font-family="sans-serif" font-size="14" lengthAdjust="spacing" textLength="116" x="47.5" y="81.0234">active : BOOLEAN</text><text fill="#000000" font-family="sans-serif" font-size="14" lengthAdjust="spacing" textLength="180" x="47.5" y="97.5117">created_date : TIMESTAMP</text><text fill="#000000" font-family="sans-serif" font-size="14" lengthAdjust="spacing" textLength="158" x="47.5" y="114">last_login : TIMESTAMP</text><text fill="#000000" font-family="sans-serif" font-size="14" lengthAdjust="spacing" textLength="111" x="47.5" y="130.4883">user_role : TEXT</text><text fill="#000000" font-family="sans-serif" font-size="14" lengthAdjust="spacing" textLength="154" x="47.5" y="146.9766">sign_up_source : TEXT</text><text fill="#000000" font-family="sans-serif" font-size="14" lengthAdjust="spacing" textLength="80" x="47.5" y="163.4648">state : TEXT</text></g><!--class brands--><g id="elem_brands"><rect codeLine="13" fill="#F1F1F1" height="196.3945" id="brands" rx="2.5" ry="2.5" style="stroke:#181818;stroke-width:0.5;" width="160" x="557.5" y="288.64"/><ellipse cx="609.25" cy="304.64" fill="#ADD1B2" rx="11" ry="11" style="stroke:#181818;stroke-width:1.0;"/><path d="M612.8643,311.14 L605.1445,311.14 L605.1445,298.7469 L612.8643,298.7469 L612.8643,300.9051 L607.5933,300.9051 L607.5933,303.578 L612.3662,303.578 L612.3662,305.7362 L607.5933,305.7362 L607.5933,308.9818 L612.8643,308.9818 Z " fill="#000000"/><text fill="#000000" font-family="sans-serif" font-size="14" lengthAdjust="spacing" textLength="48" x="629.75" y="309.931">brands</text><line style="stroke:#181818;stroke-width:0.5;" x1="558.5" x2="716.5" y1="320.64" y2="320.64"/><ellipse cx="568.5" cy="334.3841" fill="#000000" rx="3" ry="3" style="stroke:#000000;stroke-width:1.0;"/><text fill="#000000" font-family="sans-serif" font-size="14" lengthAdjust="spacing" textLength="60" x="577.5" y="338.1752">id : TEXT</text><line style="stroke:#181818;stroke-width:1.0;" x1="558.5" x2="716.5" y1="345.1283" y2="345.1283"/><text fill="#000000" font-family="sans-serif" font-size="14" lengthAdjust="spacing" textLength="103" x="563.5" y="362.6634">barcode : TEXT</text><text fill="#000000" font-family="sans-serif" font-size="14" lengthAdjust="spacing" textLength="106" x="563.5" y="379.1517">category : TEXT</text><text fill="#000000" font-family="sans-serif" font-size="14" lengthAdjust="spacing" textLength="146" x="563.5" y="395.64">category_code : TEXT</text><text fill="#000000" font-family="sans-serif" font-size="14" lengthAdjust="spacing" textLength="92" x="563.5" y="412.1283">cpg_id : TEXT</text><text fill="#000000" font-family="sans-serif" font-size="14" lengthAdjust="spacing" textLength="98" x="563.5" y="428.6166">cpg_ref : TEXT</text><text fill="#000000" font-family="sans-serif" font-size="14" lengthAdjust="spacing" textLength="85" x="563.5" y="445.1048">name : TEXT</text><text fill="#000000" font-family="sans-serif" font-size="14" lengthAdjust="spacing" textLength="148" x="563.5" y="461.5931">top_brand : BOOLEAN</text><text fill="#000000" font-family="sans-serif" font-size="14" lengthAdjust="spacing" textLength="128" x="563.5" y="478.0814">brand_code : TEXT</text></g><!--class receipts--><g id="elem_receipts"><rect codeLine="26" fill="#F1F1F1" height="278.8359" id="receipts" rx="2.5" ry="2.5" style="stroke:#181818;stroke-width:0.5;" width="261" x="7" y="247.42"/><ellipse cx="106.25" cy="263.42" fill="#ADD1B2" rx="11" ry="11" style="stroke:#181818;stroke-width:1.0;"/><path d="M109.8643,269.92 L102.1445,269.92 L102.1445,257.5269 L109.8643,257.5269 L109.8643,259.6851 L104.5933,259.6851 L104.5933,262.358 L109.3662,262.358 L109.3662,264.5162 L104.5933,264.5162 L104.5933,267.7618 L109.8643,267.7618 Z " fill="#000000"/><text fill="#000000" font-family="sans-serif" font-size="14" lengthAdjust="spacing" textLength="54" x="126.75" y="268.711">receipts</text><line style="stroke:#181818;stroke-width:0.5;" x1="8" x2="267" y1="279.42" y2="279.42"/><ellipse cx="18" cy="293.1641" fill="#000000" rx="3" ry="3" style="stroke:#000000;stroke-width:1.0;"/><text fill="#000000" font-family="sans-serif" font-size="14" lengthAdjust="spacing" textLength="60" x="27" y="296.9552">id : TEXT</text><line style="stroke:#181818;stroke-width:1.0;" x1="8" x2="267" y1="303.9083" y2="303.9083"/><text fill="#000000" font-family="sans-serif" font-size="14" lengthAdjust="spacing" textLength="195" x="13" y="321.4434">bonus_points_earned : TEXT</text><text fill="#000000" font-family="sans-serif" font-size="14" lengthAdjust="spacing" textLength="249" x="13" y="337.9317">bonus_points_earned_reason : TEXT</text><text fill="#000000" font-family="sans-serif" font-size="14" lengthAdjust="spacing" textLength="171" x="13" y="354.42">create_date : TIMESTAMP</text><text fill="#000000" font-family="sans-serif" font-size="14" lengthAdjust="spacing" textLength="186" x="13" y="370.9083">date_scanned : TIMESTAMP</text><text fill="#000000" font-family="sans-serif" font-size="14" lengthAdjust="spacing" textLength="184" x="13" y="387.3966">finished_date : TIMESTAMP</text><text fill="#000000" font-family="sans-serif" font-size="14" lengthAdjust="spacing" textLength="176" x="13" y="403.8848">modify_date : TIMESTAMP</text><text fill="#000000" font-family="sans-serif" font-size="14" lengthAdjust="spacing" textLength="238" x="13" y="420.3731">points_awarded_date : TIMESTAMP</text><text fill="#000000" font-family="sans-serif" font-size="14" lengthAdjust="spacing" textLength="145" x="13" y="436.8614">points_earned : TEXT</text><text fill="#000000" font-family="sans-serif" font-size="14" lengthAdjust="spacing" textLength="192" x="13" y="453.3497">purchase_date : TIMESTAMP</text><text fill="#000000" font-family="sans-serif" font-size="14" lengthAdjust="spacing" textLength="202" x="13" y="469.838">purchased_item_count : TEXT</text><text fill="#000000" font-family="sans-serif" font-size="14" lengthAdjust="spacing" textLength="204" x="13" y="486.3262">rewards_receipt_status : TEXT</text><text fill="#000000" font-family="sans-serif" font-size="14" lengthAdjust="spacing" textLength="123" x="13" y="502.8145">total_spent : TEXT</text><text fill="#000000" font-family="sans-serif" font-size="14" lengthAdjust="spacing" textLength="97" x="13" y="519.3028">user_id : TEXT</text></g><!--class receipt_items--><g id="elem_receipt_items"><rect codeLine="44" fill="#F1F1F1" height="641.5781" id="receipt_items" rx="2.5" ry="2.5" style="stroke:#181818;stroke-width:0.5;" width="334" x="220.5" y="603.25"/><ellipse cx="337.75" cy="619.25" fill="#ADD1B2" rx="11" ry="11" style="stroke:#181818;stroke-width:1.0;"/><path d="M341.3643,625.75 L333.6445,625.75 L333.6445,613.3569 L341.3643,613.3569 L341.3643,615.5151 L336.0933,615.5151 L336.0933,618.188 L340.8662,618.188 L340.8662,620.3462 L336.0933,620.3462 L336.0933,623.5918 L341.3643,623.5918 Z " fill="#000000"/><text fill="#000000" font-family="sans-serif" font-size="14" lengthAdjust="spacing" textLength="91" x="358.25" y="624.541">receipt_items</text><line style="stroke:#181818;stroke-width:0.5;" x1="221.5" x2="553.5" y1="635.25" y2="635.25"/><ellipse cx="231.5" cy="648.9941" fill="#000000" rx="3" ry="3" style="stroke:#000000;stroke-width:1.0;"/><text fill="#000000" font-family="sans-serif" font-size="14" lengthAdjust="spacing" textLength="71" x="240.5" y="652.7852">id : SERIAL</text><line style="stroke:#181818;stroke-width:1.0;" x1="221.5" x2="553.5" y1="659.7383" y2="659.7383"/><text fill="#000000" font-family="sans-serif" font-size="14" lengthAdjust="spacing" textLength="114" x="226.5" y="677.2734">receipt_id : TEXT</text><text fill="#000000" font-family="sans-serif" font-size="14" lengthAdjust="spacing" textLength="103" x="226.5" y="693.7617">barcode : TEXT</text><text fill="#000000" font-family="sans-serif" font-size="14" lengthAdjust="spacing" textLength="124" x="226.5" y="710.25">description : TEXT</text><text fill="#000000" font-family="sans-serif" font-size="14" lengthAdjust="spacing" textLength="118" x="226.5" y="726.7383">final_price : TEXT</text><text fill="#000000" font-family="sans-serif" font-size="14" lengthAdjust="spacing" textLength="118" x="226.5" y="743.2266">item_price : TEXT</text><text fill="#000000" font-family="sans-serif" font-size="14" lengthAdjust="spacing" textLength="210" x="226.5" y="759.7148">needs_fetch_review : BOOLEAN</text><text fill="#000000" font-family="sans-serif" font-size="14" lengthAdjust="spacing" textLength="155" x="226.5" y="776.2031">partner_item_id : TEXT</text><text fill="#000000" font-family="sans-serif" font-size="14" lengthAdjust="spacing" textLength="260" x="226.5" y="792.6914">prevent_target_gap_points : BOOLEAN</text><text fill="#000000" font-family="sans-serif" font-size="14" lengthAdjust="spacing" textLength="182" x="226.5" y="809.1797">quantity_purchased : TEXT</text><text fill="#000000" font-family="sans-serif" font-size="14" lengthAdjust="spacing" textLength="199" x="226.5" y="825.668">user_flagged_barcode : TEXT</text><text fill="#000000" font-family="sans-serif" font-size="14" lengthAdjust="spacing" textLength="238" x="226.5" y="842.1562">user_flagged_new_item : BOOLEAN</text><text fill="#000000" font-family="sans-serif" font-size="14" lengthAdjust="spacing" textLength="177" x="226.5" y="858.6445">user_flagged_price : TEXT</text><text fill="#000000" font-family="sans-serif" font-size="14" lengthAdjust="spacing" textLength="199" x="226.5" y="875.1328">user_flagged_quantity : TEXT</text><text fill="#000000" font-family="sans-serif" font-size="14" lengthAdjust="spacing" textLength="234" x="226.5" y="891.6211">needs_fetch_review_reason : TEXT</text><text fill="#000000" font-family="sans-serif" font-size="14" lengthAdjust="spacing" textLength="240" x="226.5" y="908.1094">points_not_awarded_reason : TEXT</text><text fill="#000000" font-family="sans-serif" font-size="14" lengthAdjust="spacing" textLength="155" x="226.5" y="924.5977">points_payer_id : TEXT</text><text fill="#000000" font-family="sans-serif" font-size="14" lengthAdjust="spacing" textLength="151" x="226.5" y="941.0859">rewards_group : TEXT</text><text fill="#000000" font-family="sans-serif" font-size="14" lengthAdjust="spacing" textLength="241" x="226.5" y="957.5742">rewards_product_partner_id : TEXT</text><text fill="#000000" font-family="sans-serif" font-size="14" lengthAdjust="spacing" textLength="220" x="226.5" y="974.0625">user_flagged_description : TEXT</text><text fill="#000000" font-family="sans-serif" font-size="14" lengthAdjust="spacing" textLength="243" x="226.5" y="990.5508">original_meta_brite_barcode : TEXT</text><text fill="#000000" font-family="sans-serif" font-size="14" lengthAdjust="spacing" textLength="264" x="226.5" y="1007.0391">original_meta_brite_description : TEXT</text><text fill="#000000" font-family="sans-serif" font-size="14" lengthAdjust="spacing" textLength="128" x="226.5" y="1023.5273">brand_code : TEXT</text><text fill="#000000" font-family="sans-serif" font-size="14" lengthAdjust="spacing" textLength="233" x="226.5" y="1040.0156">competitor_rewards_group : TEXT</text><text fill="#000000" font-family="sans-serif" font-size="14" lengthAdjust="spacing" textLength="201" x="226.5" y="1056.5039">discounted_item_price : TEXT</text><text fill="#000000" font-family="sans-serif" font-size="14" lengthAdjust="spacing" textLength="225" x="226.5" y="1072.9922">original_receipt_item_text : TEXT</text><text fill="#000000" font-family="sans-serif" font-size="14" lengthAdjust="spacing" textLength="138" x="226.5" y="1089.4805">item_number : TEXT</text><text fill="#000000" font-family="sans-serif" font-size="14" lengthAdjust="spacing" textLength="322" x="226.5" y="1105.9688">original_meta_brite_quantity_purchased : TEXT</text><text fill="#000000" font-family="sans-serif" font-size="14" lengthAdjust="spacing" textLength="145" x="226.5" y="1122.457">points_earned : TEXT</text><text fill="#000000" font-family="sans-serif" font-size="14" lengthAdjust="spacing" textLength="129" x="226.5" y="1138.9453">target_price : TEXT</text><text fill="#000000" font-family="sans-serif" font-size="14" lengthAdjust="spacing" textLength="217" x="226.5" y="1155.4336">competitive_product : BOOLEAN</text><text fill="#000000" font-family="sans-serif" font-size="14" lengthAdjust="spacing" textLength="178" x="226.5" y="1171.9219">original_final_price : TEXT</text><text fill="#000000" font-family="sans-serif" font-size="14" lengthAdjust="spacing" textLength="258" x="226.5" y="1188.4102">original_meta_brite_item_price : TEXT</text><text fill="#000000" font-family="sans-serif" font-size="14" lengthAdjust="spacing" textLength="128" x="226.5" y="1204.8984">deleted : BOOLEAN</text><text fill="#000000" font-family="sans-serif" font-size="14" lengthAdjust="spacing" textLength="179" x="226.5" y="1221.3867">price_after_coupon : TEXT</text><text fill="#000000" font-family="sans-serif" font-size="14" lengthAdjust="spacing" textLength="207" x="226.5" y="1237.875">metabrite_campaign_id : TEXT</text></g><g id="elem_GMN9"><path d="M268.5,76.05 L268.5,84.71 L233.7,88.71 L268.5,92.71 L268.5,101.3605 A0,0 0 0 0 268.5,101.3605 L382.5,101.3605 A0,0 0 0 0 382.5,101.3605 L382.5,86.05 L372.5,76.05 L268.5,76.05 A0,0 0 0 0 268.5,76.05 " fill="#FEFFDD" style="stroke:#181818;stroke-width:0.5;"/><path d="M372.5,76.05 L372.5,86.05 L382.5,86.05 L372.5,76.05 " fill="#FEFFDD" style="stroke:#181818;stroke-width:0.5;"/><text fill="#000000" font-family="sans-serif" font-size="13" lengthAdjust="spacing" textLength="93" x="274.5" y="93.6184">Primary Key: id</text></g><g id="elem_GMN12"><path d="M753,366.52 L753,382.83 L717.79,386.83 L753,390.83 L753,407.1411 A0,0 0 0 0 753,407.1411 L1044,407.1411 A0,0 0 0 0 1044,407.1411 L1044,376.52 L1034,366.52 L753,366.52 A0,0 0 0 0 753,366.52 " fill="#FEFFDD" style="stroke:#181818;stroke-width:0.5;"/><path d="M1034,366.52 L1034,376.52 L1044,376.52 L1034,366.52 " fill="#FEFFDD" style="stroke:#181818;stroke-width:0.5;"/><text fill="#000000" font-family="sans-serif" font-size="13" lengthAdjust="spacing" textLength="93" x="759" y="384.0884">Primary Key: id</text><text fill="#000000" font-family="sans-serif" font-size="13" lengthAdjust="spacing" textLength="270" x="759" y="399.3989">Should-be Unique (?): barcode, brand_code</text></g><g id="elem_GMN15"><path d="M303,366.52 L303,382.83 L268.29,386.83 L303,390.83 L303,407.1411 A0,0 0 0 0 303,407.1411 L522,407.1411 A0,0 0 0 0 522,407.1411 L522,376.52 L512,366.52 L303,366.52 A0,0 0 0 0 303,366.52 " fill="#FEFFDD" style="stroke:#181818;stroke-width:0.5;"/><path d="M512,366.52 L512,376.52 L522,376.52 L512,366.52 " fill="#FEFFDD" style="stroke:#181818;stroke-width:0.5;"/><text fill="#000000" font-family="sans-serif" font-size="13" lengthAdjust="spacing" textLength="93" x="309" y="384.0884">Primary Key: id</text><text fill="#000000" font-family="sans-serif" font-size="13" lengthAdjust="spacing" textLength="198" x="309" y="399.3989">Foreign Key: user_id &#8594; users.id</text></g><g id="elem_GMN18"><path d="M589.5,896.08 L589.5,920.04 L554.84,924.04 L589.5,928.04 L589.5,952.0116 A0,0 0 0 0 589.5,952.0116 L905.5,952.0116 A0,0 0 0 0 905.5,952.0116 L905.5,906.08 L895.5,896.08 L589.5,896.08 A0,0 0 0 0 589.5,896.08 " fill="#FEFFDD" style="stroke:#181818;stroke-width:0.5;"/><path d="M895.5,896.08 L895.5,906.08 L905.5,906.08 L895.5,896.08 " fill="#FEFFDD" style="stroke:#181818;stroke-width:0.5;"/><text fill="#000000" font-family="sans-serif" font-size="13" lengthAdjust="spacing" textLength="147" x="595.5" y="913.6484">Primary Key: id (SERIAL)</text><text fill="#000000" font-family="sans-serif" font-size="13" lengthAdjust="spacing" textLength="230" x="595.5" y="928.9589">Foreign Key: receipt_id &#8594; receipts.id</text><text fill="#000000" font-family="sans-serif" font-size="13" lengthAdjust="spacing" textLength="295" x="595.5" y="944.2695">Foreign Key: brand_code &#8594; brands.brand_code</text></g><!--link users to receipts--><g id="link_users_receipts"><path codeLine="85" d="M137.5,178.62 C137.5,202.26 137.5,202.78 137.5,228.93 " fill="none" id="users-receipts" style="stroke:#181818;stroke-width:1.0;"/><line style="stroke:#181818;stroke-width:1.0;" x1="133.5" x2="141.5" y1="174.62" y2="174.62"/><line style="stroke:#181818;stroke-width:1.0;" x1="133.5" x2="141.5" y1="177.62" y2="177.62"/><line style="stroke:#181818;stroke-width:1.0;" x1="137.5" x2="137.5" y1="178.62" y2="170.62"/><line style="stroke:#181818;stroke-width:1.0;" x1="137.5" x2="143.5" y1="238.93" y2="246.93"/><line style="stroke:#181818;stroke-width:1.0;" x1="137.5" x2="131.5" y1="238.93" y2="246.93"/><line style="stroke:#181818;stroke-width:1.0;" x1="137.5" x2="137.5" y1="238.93" y2="246.93"/><ellipse cx="137.5" cy="232.93" fill="none" rx="4" ry="4" style="stroke:#181818;stroke-width:1.0;"/><text fill="#000000" font-family="sans-serif" font-size="13" lengthAdjust="spacing" textLength="46" x="138.5" y="213.9884">user_id</text></g><!--link receipts to receipt_items--><g id="link_receipts_receipt_items"><path codeLine="86" d="M205.7574,533.9575 C216.9374,557.8775 217.9447,560.0503 230.2947,586.5003 " fill="none" id="receipts-receipt_items" style="stroke:#181818;stroke-width:1.0;"/><line style="stroke:#181818;stroke-width:1.0;" x1="200.44" x2="207.6874" y1="532.0274" y2="528.64"/><line style="stroke:#181818;stroke-width:1.0;" x1="201.7102" x2="208.9577" y1="534.7452" y2="531.3578"/><line style="stroke:#181818;stroke-width:1.0;" x1="205.7574" x2="202.37" y1="533.9575" y2="526.71"/><line style="stroke:#181818;stroke-width:1.0;" x1="234.5254" x2="243.3466" y1="595.5612" y2="600.2716"/><line style="stroke:#181818;stroke-width:1.0;" x1="234.5254" x2="232.4734" y1="595.5612" y2="605.3484"/><line style="stroke:#181818;stroke-width:1.0;" x1="234.5254" x2="237.91" y1="595.5612" y2="602.81"/><ellipse cx="231.987" cy="590.1247" fill="none" rx="4" ry="4" style="stroke:#181818;stroke-width:1.0;"/><text fill="#000000" font-family="sans-serif" font-size="13" lengthAdjust="spacing" textLength="62" x="219.36" y="569.8184">receipt_id</text></g><!--link brands to receipt_items--><g id="link_brands_receipt_items"><path codeLine="87" d="M584.321,501.688 C568.301,535.978 563.2664,546.7387 543.4164,589.2487 " fill="none" id="brands-receipt_items" style="stroke:#181818;stroke-width:1.0;"/><line style="stroke:#181818;stroke-width:1.0;" x1="588.5538" x2="586.504" y1="492.628" y2="482.8403"/><line style="stroke:#181818;stroke-width:1.0;" x1="588.5538" x2="597.376" y1="492.628" y2="487.9197"/><line style="stroke:#181818;stroke-width:1.0;" x1="588.5538" x2="591.94" y1="492.628" y2="485.38"/><ellipse cx="586.0141" cy="498.064" fill="none" rx="4" ry="4" style="stroke:#181818;stroke-width:1.0;"/><line style="stroke:#181818;stroke-width:1.0;" x1="541.7241" x2="537.07" y1="592.8731" y2="602.84"/><ellipse cx="541.7241" cy="592.8731" fill="none" rx="4" ry="4" style="stroke:#181818;stroke-width:1.0;"/><line style="stroke:#181818;stroke-width:1.0;" x1="542.3867" x2="535.138" y1="600.908" y2="597.5233"/><text fill="#000000" font-family="sans-serif" font-size="13" lengthAdjust="spacing" textLength="73" x="557.64" y="569.8184">brand_code</text></g><!--SRC=[XLRTJjim5BxFKrYz0QQL1-ZDr6cTX0O33IRjpdBZazHIOXlRWLN0xHvWZxWdsR6Jj77Y52uAFN_-plST7tD6la0X912GJZW1DWj_x4bZmLZoaX7y-I0uMP67pQ-7y7Mv3BzOxiGJeEFpxUtrPlqz67C3p06d73zzpjNDvlvXVNCNd1MpZbQg57BYyiTHeoeO7cH5AMcZgLMDoMEFw-fxmrlMWzuQ9lbfr5jcSiMZOZdMAfNPfsnq4gnB6XVs5WF5q2HP7IKvfMd0Dc8hsA8ZZhqOo45ezqutIZQMQYMainIOaH159Tm8bLabemQ2Pcd9l97QdCckSkJ4mH5sDwTshRWezcbV1uazCyFdycUxqZWDEsPd4FTUJeM36ibjf1jc6_27MjhnI_qeDJPMox6AMWrnOXZHemeJfS9viLptcnzNw-kXO8VOMAVfK7AmkS584Mk5b2CsRKHy7qAh4wi4m4OBSFaEstqIy3oQFysCaxuhdnv3qfY0_L77J0cEbantSpGgyTYmm08zy3xXhAXOMQ8UYIuZluJdW6HqGXGpwJ7ozc1Eav2u0jsiIUKECpaRfDa-6eJXK9L6DJhbq4Rn9dVqmFWyJJFAAoFA87uDZk4sGQPIZAR2PYfEjq_O1ghMW2GgtCTpNN5XmxtgBzb4bGEAuTsW3dwxoTJAfjw2UQ-5qsCskogwwPtWwvl41woNPZHr1n0pDou5Ciq5XmeSZ5T_2AEiSAWySgbZQNpHjcREQityEnXjdhF-sJPGCQ-htGbji_RHVdrTBjNByG5PaKMtknRPmHW7TRiB8uyBQf5rp-cRmj3NQUXnVXOUqPfpWXS8B2cK8Nd54Fy-ynQ2NEqSKKNxNmLsU6T4pV35_GRx5H4SDscRcutYMmI914BkTwgf-78BvASKZmsGyqyNgtwJVXmCzspndeja-Q_A0DBUMlhL_-_FtxQ5onEO8vwcjSbv-ofSZ0yPF0t-d1xTvHJEuEBwo9QaorJ7_m40]--></g></svg>